<?xml version="1.0" encoding="UTF-8" standalone="no"?>
<svg
   xmlns:dc="http://purl.org/dc/elements/1.1/"
   xmlns:cc="http://creativecommons.org/ns#"
   xmlns:rdf="http://www.w3.org/1999/02/22-rdf-syntax-ns#"
   xmlns:svg="http://www.w3.org/2000/svg"
   xmlns="http://www.w3.org/2000/svg"
   xmlns:sodipodi="http://sodipodi.sourceforge.net/DTD/sodipodi-0.dtd"
   xmlns:inkscape="http://www.inkscape.org/namespaces/inkscape"
   version="1.1"
   id="svg2"
   xml:space="preserve"
   width="4266.6665"
   height="2666.6667"
   viewBox="0 0 4266.6665 2666.6667"
   sodipodi:docname="TINYPH~1.eps"><metadata
     id="metadata8"><rdf:RDF><cc:Work
         rdf:about=""><dc:format>image/svg+xml</dc:format><dc:type
           rdf:resource="http://purl.org/dc/dcmitype/StillImage" /></cc:Work></rdf:RDF></metadata><defs
     id="defs6" /><sodipodi:namedview
     pagecolor="#ffffff"
     bordercolor="#666666"
     borderopacity="1"
     objecttolerance="10"
     gridtolerance="10"
     guidetolerance="10"
     inkscape:pageopacity="0"
     inkscape:pageshadow="2"
     inkscape:window-width="640"
     inkscape:window-height="480"
     id="namedview4" /><g
     id="g10"
     inkscape:groupmode="layer"
     inkscape:label="ink_ext_XXXXXX"
     transform="matrix(1.3333333,0,0,-1.3333333,0,2666.6667)"><g
       id="g12"
       transform="scale(0.1)"><path
         d="M 32000,0 H 0 V 20000 H 32000 V 0"
         style="fill:#ffffff;fill-opacity:1;fill-rule:nonzero;stroke:none"
         id="path14" /><path
         d="m 15296.1,18074.1 c -156.7,61.8 -319.9,104.1 -485.2,125.6 l 23.6,97 c 179.3,-23.4 356.1,-69.1 525.5,-135.9 z m -1469.8,-0.1 -72.5,83 c 159.3,74.6 334.9,123.2 521.8,144.2 l 20.5,-97.3 c -168.3,-19 -326.3,-62.7 -469.8,-129.9 z m 2254.9,-506.8 c -117.5,107.9 -238.9,203.4 -360.6,284 l 90.2,73 c 127.2,-84.1 253.5,-183.6 375.6,-295.6 z m -2906.5,-75.2 -120.6,43.5 c 88.3,131 186.3,246.8 291.2,344.3 l 105.6,-60.9 c -99,-92.1 -192,-202.1 -276.2,-326.9 z m 3483.5,-584.4 c -88.5,122 -178.9,236.5 -268.6,340.3 l 113.7,52.6 c 91.5,-105.9 183.7,-222.6 273.8,-346.7 z m -3836,-153.2 -130.6,23.8 c 47,137.5 98.7,267 153.8,384.9 l 127.3,-31.8 c -53.9,-115.3 -104.5,-242.1 -150.5,-376.9 z m 4291.5,-562 c -72.3,127.3 -145.1,249 -216.6,361.9 l 122.1,41.4 c 72.2,-114.1 145.8,-237 218.8,-365.5 z m -4493.8,-213.2 -133.1,14.1 c 27.2,137.8 57.1,270.4 88.9,394 l 132.2,-18.2 c -31.4,-122.2 -61,-253.4 -88,-389.9 z m 4881,-525.5 c -65,132.8 -126.3,254.2 -187.3,371.1 l 125.7,35.1 c 61.3,-117.5 122.9,-239.5 188.2,-373 z m -5003.3,-261.3 -134.1,8.7 c 16.8,138.2 35,271.6 54.3,396.5 l 133.7,-11 c -19.1,-124.2 -37.3,-256.8 -53.9,-394.2 z m 12052.2,-166.1 c -166.6,51.5 -335.3,83.3 -501.3,94.6 l 12.5,98.1 c 179.7,-12.3 361.8,-46.6 541.1,-102 z m -1467.9,-120.6 -77.2,80.7 c 165.5,84.7 332.6,147.4 496.8,186.4 l 41.5,-93.6 c -151.4,-36 -306.6,-94.4 -461.1,-173.5 z m -5228.4,-202.3 c -67,146.5 -122.1,265.9 -173.6,375.9 l 127.2,31.9 c 51.7,-110.2 106.9,-229.9 174,-376.6 z m 7549.6,-122.6 c -129.5,97.1 -263.6,182.8 -398.6,254.7 l 79.2,79.6 c 141,-75.2 280.9,-164.5 415.7,-265.6 z M 7031,14421.6 c -167.88,61.2 -333,100.2 -490.79,116 l 18.27,97.5 c 172.31,-17.2 351.45,-59.4 532.45,-125.3 z m 5388.3,-20.6 -134.3,5.9 c 11.6,143.1 23.2,273 35.3,397.3 l 134.2,-7.1 c -12.1,-123.8 -23.6,-253.4 -35.2,-396.1 z m 9903.8,-38.7 -104.6,62 c 126.2,113.9 245.8,211.9 365.5,299.7 l 95.2,-69.6 c -116.4,-85.3 -232.9,-180.9 -356.1,-292.1 z m -16743.27,-30.1 -81.6,78.2 c 160.66,89.7 327.87,154.4 496.99,192.3 l 39.36,-94.2 c -153.81,-34.4 -306.81,-93.7 -454.75,-176.3 z M 26049.6,13961 c -96.4,115.1 -197.5,224 -300.4,323.6 l 107.3,59.4 c 105.6,-102.2 209.1,-213.7 307.8,-331.6 z m -18171.95,-4.2 c -137.5,98 -272.71,184.5 -401.86,257.2 l 82.04,78.1 c 133.26,-75.1 272.44,-164.1 413.67,-264.8 z m 10320.75,-6.9 c -61.7,132.3 -122.3,264.7 -173.3,376.8 l 127.6,31.1 c 51,-111.9 111.4,-244.1 173,-376.1 z m -13309.29,-200.3 -113.4,53 c 105.73,121.2 214.73,230.6 323.99,325.3 l 102.78,-63.6 c -105.42,-91.3 -210.85,-197.2 -313.37,-314.7 z m 16804.79,-27.8 -112.3,54.3 c 112.4,124.5 213,232.1 307.4,329.2 l 109.6,-57.1 c -93.5,-96.1 -193.2,-202.9 -304.7,-326.4 z m -9332.4,-114.1 -134.4,4.9 c 9.1,131.6 18.1,263.2 27.7,397.1 l 134.3,-5.2 c -9.6,-133.8 -18.6,-265.3 -27.6,-396.8 z M 8594.94,13370 c -122.08,110.9 -235.71,209.6 -347.39,301.7 l 100.65,65.3 c 113.1,-93.3 228.08,-193.1 351.51,-305.3 z m 17943.26,-107.5 c -72.3,123.3 -148.8,243.1 -227.4,356 l 119.9,44.7 c 79.9,-114.8 157.7,-236.6 231.2,-361.8 z m -7967.7,-61.4 c -60.9,111.9 -123.9,233.9 -192.5,373.1 l 126.6,33.4 c 68.1,-138.2 130.5,-259.2 190.9,-370 z m 2533.3,-145.6 -112.4,54.1 c 95.6,106.4 194.4,219.1 294.3,332.9 l 113.2,-53.2 c -100.2,-114.1 -199,-226.9 -295.1,-333.8 z m -16713.9,0 -123.08,39.7 c 73.85,122.5 152.56,242.7 236.19,360.2 l 119.29,-45.5 c -82.29,-115.7 -159.72,-234 -232.4,-354.4 z m 7911.8,-242.4 -134.3,6.4 c 10.2,115.3 20.6,245 31.7,396.3 l 134.4,-5.3 c -11.2,-151.7 -21.6,-281.7 -31.8,-397.4 z m -3051.77,-73.2 c -123.09,123.2 -225.66,224.2 -322.82,318.1 l 107.25,59.4 c 97.61,-94.3 200.61,-195.8 324.15,-319.3 z M 26908,12523.4 c -54.2,127.6 -112,253.2 -171.9,373.3 l 126.4,33.7 c 60.6,-121.6 119.2,-248.7 174,-377.7 z m -7857.1,-43.6 c -87.1,98.3 -173.4,214.1 -263.8,353.9 l 121.6,42.1 c 87.8,-135.8 171.3,-247.8 255.1,-342.4 z m 1400.3,-67.7 -98.9,66.8 c 102,80.9 211.4,180.6 334.3,304.9 l 109,-57.7 c -126.1,-127.5 -238.7,-230.2 -344.4,-314 z m -16434.78,-93.8 -128.66,28.8 c 53.46,127.9 112.1,255.1 174.31,378.1 l 126.17,-34.2 c -61.31,-121.2 -119.12,-246.6 -171.82,-372.7 z m 15722.48,-212.1 c -104.7,0 -207.5,22.9 -305.5,68 l 71.7,83.3 c 147.2,-67.9 292,-68.1 448.3,-13.9 l 57.9,-88.8 c -92.5,-32.3 -184.1,-48.6 -272.4,-48.6 z m -9849.61,-8.1 c -109.36,108 -222.79,222.3 -320.53,320.9 l 108.91,57.8 c 97.54,-98.4 210.74,-212.4 319.74,-320.2 z m 2314.71,-80.1 -133.5,12.6 c 20.7,117.5 39.2,246.2 56.7,393.4 l 134,-8.5 c -17.6,-148.6 -36.3,-278.6 -57.2,-397.5 z m 14980.4,-256.6 c -39.8,130.1 -82.8,259 -127.7,383.2 l 130,25.2 c 45.4,-125.4 88.8,-255.6 129,-386.9 z m -23426.83,-207.1 -132.07,18.8 c 34.85,131.4 74.29,262.4 117.21,389.4 l 130.61,-23.6 c -42.39,-125.4 -81.33,-254.8 -115.75,-384.6 z m 6811.33,-80.7 c -107.1,87.3 -221.7,187.8 -350.1,307.3 l 105.7,60.8 c 126.6,-117.7 239.3,-216.6 344.5,-302.4 z m 1371.1,-239.6 -119.8,44.8 c 61.6,88.3 116,210.7 161.8,364 l 131.5,-21 c -49,-163.8 -105.7,-290.6 -173.5,-387.8 z m -466.8,-234.2 c -186.9,21.6 -322.1,83.8 -509.4,191.4 l 85,76.3 c 164.1,-94 282.6,-150.4 438.8,-169.8 z m 15911.3,-13.9 c -28,131.4 -58.8,262.3 -91.4,389 l 132.2,18.3 c 32.9,-127.8 63.9,-259.7 92.1,-392.1 z m -23782.29,-211.2 -133.86,9.8 c 18.28,133.1 40.55,266.2 66.22,395.5 l 133.14,-14.1 c -25.39,-127.9 -47.42,-259.5 -65.5,-391.2 z m 23918.09,-572.3 c -18,132.2 -38.4,264.2 -60.5,392.5 l 133.4,12.3 c 22.4,-129.1 42.8,-262 60.9,-395.1 z m -23982.02,-214.9 -134.51,2.1 c 3.75,133.6 10.97,267.5 21.48,397.8 l 134.31,-5.8 c -10.42,-129.1 -17.57,-261.7 -21.28,-394.1 z M 27600.7,9414.4 c -9.3,132.2 -20.6,264.9 -33.8,394.4 l 134.2,7.3 c 13.2,-130.2 24.6,-263.7 33.9,-396.7 z M 3420.08,9193.7 c -8.93,133.3 -14.84,267.1 -17.59,397.7 l 134.52,1.5 c 2.72,-129.5 8.59,-262.2 17.44,-394.4 z M 27632.5,8624.2 c -1.6,132.4 -5,265.4 -10.2,395.3 l 134.5,2.8 c 5.2,-130.5 8.7,-264.2 10.3,-397.2 z M 3507.24,8400.4 c -20.06,132.5 -37.51,265.8 -51.89,396.1 l 134.1,8 c 14.27,-129.4 31.6,-261.7 51.51,-393.2 z m 24248.46,-569.9 -134.5,2.9 c 5.3,132.3 8.9,265.3 10.8,395.4 l 134.5,-1.1 c -1.9,-130.6 -5.5,-264.2 -10.8,-397.2 z m -24098.62,-218 c -29.92,131.1 -57.62,263.4 -82.32,393.2 l 133.24,13.5 c 24.55,-128.8 52.06,-260.2 81.78,-390.5 z M 27705.4,7037 l -134.3,6.2 c 11.4,131.8 21.4,264.6 29.7,395 l 134.4,-4.6 c -8.4,-130.9 -18.4,-264.3 -29.8,-396.6 z M 3863.38,6831.5 c -38.85,129.6 -75.83,260.7 -109.89,389.5 l 132.09,18.7 c 33.85,-128 70.59,-258.3 109.21,-387.1 z m 23756.32,-586.3 -133.9,9.3 c 17,131.8 32.8,264.4 46.8,394.1 l 134.1,-7.8 c -14.1,-130.2 -29.9,-263.3 -47,-395.6 z M 4122.05,6059 c -47.09,127.2 -92.75,256.8 -135.74,385.1 l 130.67,23.5 c 42.73,-127.6 88.12,-256.4 134.93,-382.8 z m 23379.75,-603.2 -133.5,12.1 c 22.2,131.3 43.2,263.5 62.6,393 l 133.7,-10.7 c -19.4,-130 -40.5,-262.6 -62.8,-394.4 z M 4432.32,5296.5 c -55,123.4 -109.42,251.2 -161.75,379.9 l 128.96,28 c 51.99,-127.8 106.05,-254.8 160.69,-377.3 l -127.9,-30.6"
         style="fill:#dce6ff;fill-opacity:1;fill-rule:nonzero;stroke:none"
         id="path16" /><path
         d="m 2085.5,4655 c 0,0 -175.72,-652.6 633.19,-826.9 1106.44,-238.3 7362.21,-877.9 5784.46,-1353.8 -890.66,-268.7 693.52,-620.3 5031.65,-754.6 4338.2,-134.3 11782.1,392 9278.8,1170.8 -2503.3,778.8 7724.3,144.6 7103.1,1764.5 H 2085.5"
         style="fill:#c3d6f4;fill-opacity:1;fill-rule:nonzero;stroke:none"
         id="path18" /><path
         d="m 4252.18,4697.4 c 0,0 -1597.4,6014.2 1848.16,8190.5 1544.31,975.4 3223.71,-1646.7 5217.66,-558.5 1775.2,968.9 638.8,3232.5 2367.1,4323.9 2125.7,1342.3 5676.5,-5321.9 8171.1,-4288.2 3924,1626.2 6132.4,-964.6 5433.1,-7677.6 l -23037.12,9.9"
         style="fill:#c3d6f4;fill-opacity:1;fill-rule:nonzero;stroke:none"
         id="path20" /><path
         d="M 28436.7,7782.2 C 27320.3,7917.8 27421.4,5879.9 25830,5879.9 c -1455,0 -2233.6,4553.2 -3830.3,3627.1 -6418.9,-3722.9 -1424.5,2612.3 -5740.7,2736.1 -1951.6,56 -3252.1,-1649.3 -3731.7,-4668.5 C 11832.1,4845 10220,9656.4 8560.85,9209.1 7506.4,8924.8 7627.16,5879.9 6172.17,5879.9 4580.78,5879.9 4685.62,7593.6 3569.2,7458 2367.19,7312 2085.5,4655 2085.5,4655 h 27831.2 c 0,0 -278,2981.2 -1480,3127.2"
         style="fill:#cddff9;fill-opacity:1;fill-rule:nonzero;stroke:none"
         id="path22" /><path
         d="m 27365.8,5644.2 c -1027.1,58 -859.5,-465.7 -2323.5,-465.7 -1338.6,0 -1301.8,1173.6 -2197.6,1423 -1649.5,459.3 -3009.5,-1865.3 -3649,-698.6 -1214.6,3095.6 -4757.2,4648.1 -6391.6,0 -639.5,-1166.7 -2135.1,915 -3649.02,698.6 -931.9,-133.2 -858.97,-1423 -2197.53,-1423 -1464.03,0 -1296.43,523.7 -2323.51,465.7 C 3528.21,5581.8 3197.92,4655 3197.92,4655 H 28801.9 c 0,0 -330.3,926.8 -1436.1,989.2"
         style="fill:#d9eaff;fill-opacity:1;fill-rule:nonzero;stroke:none"
         id="path24" /><path
         d="m 24709,14799.9 v -10651 c 0,-183.1 -148.5,-331.6 -331.7,-331.6 h -8201.8 c -183.8,-0.9 -332.8,151.7 -331.7,331.6 v 10651 c 0,183.1 148.5,331.6 331.7,331.6 h 8201.8 c 183.2,0 331.7,-148.5 331.7,-331.6"
         style="fill:#8a9edd;fill-opacity:1;fill-rule:nonzero;stroke:none"
         id="path26" /><path
         d="m 24709,14799.9 v -10651 c 0,-183.1 -148.5,-331.6 -331.7,-331.6 h -8201.8 c -170,0 -310,127.7 -329.4,292.4 13.7,23.8 21.1,36.5 21.1,36.5 0,0 8219.9,386.3 8219.9,10955.9 l 34.4,29.4 c 266,12.9 569.5,12.3 587.5,-331.6"
         style="fill:#7689d6;fill-opacity:1;fill-rule:nonzero;stroke:none"
         id="path28" /><path
         d="M 24087.1,14626.2 V 4610.9 h -7621.5 v 10015.3 h 7621.5"
         style="fill:#e9f4ff;fill-opacity:1;fill-rule:nonzero;stroke:none"
         id="path30" /><path
         d="m 21732.1,7137.7 c -1044.6,-18.7 -1044.4,-1571.2 0.1,-1589.7 1044.6,18.7 1044.4,1571.1 -0.1,1589.7 z m 0,-1742 c -1244.7,22.3 -1244.5,1872.2 0.1,1894.3 1244.7,-22.3 1244.5,-1872.2 -0.1,-1894.3"
         style="fill:#eb5648;fill-opacity:1;fill-rule:nonzero;stroke:none"
         id="path32" /><path
         d="m 20276.4,15482 c -195.2,3.3 -195.1,293.5 0,296.9 195,-3.4 195.1,-293.6 0,-296.9 z m 2413.8,-146.1 h -895.8 v 520 c 0,125.7 -101.9,227.5 -227.6,227.5 h -2580.9 c -125.7,0 -227.6,-101.8 -227.6,-227.5 v -520 c -1141.8,-52.4 -1148.7,285.3 -1123.2,-882.4 0,-125.7 101.8,-227.6 227.5,-227.6 h 4827.6 c 125.6,0 227.5,101.9 227.5,227.6 v 654.9 c 0,125.6 -101.9,227.5 -227.5,227.5"
         style="fill:#fcb4b4;fill-opacity:1;fill-rule:nonzero;stroke:none"
         id="path34" /><path
         d="m 22917.7,15108.4 v -654.9 c 0,-125.7 -101.9,-227.6 -227.5,-227.6 h -4827.6 c -125.7,0 -227.5,101.9 -227.5,227.6 0,0 3931.7,-216.4 3931.7,1629.9 125.7,0 227.6,-101.8 227.6,-227.5 v -520 h 895.8 c 125.6,0 227.5,-101.9 227.5,-227.5"
         style="fill:#f49f9f;fill-opacity:1;fill-rule:nonzero;stroke:none"
         id="path36" /><path
         d="m 20276.4,16083.4 c -1412.3,0 -1518.1,-747.5 -1518.1,-747.5 v 520 c 0,125.7 101.9,227.5 227.6,227.5 h 1290.5"
         style="fill:#f9c0c0;fill-opacity:1;fill-rule:nonzero;stroke:none"
         id="path38" /><path
         d="m 19965.2,6673.9 c -0.4,-0.1 -0.7,-0.1 -1,-0.2 -17.9,-5.9 -78.2,-87.7 -45,-381.5 6.1,-53.9 13.2,-104.9 21.2,-152.8 31.5,60 52.1,113.7 65.5,158.9 47.6,160.1 28.1,281.2 -6,341.1 -14.7,25.7 -29.1,34.8 -34.7,34.5 z m 572.5,-454.4 c -8.7,-9.9 -24.7,-41.5 -25.6,-96.6 -0.4,-26.1 3.1,-91 40.8,-158.4 27.8,96.5 27.7,188.3 -6.6,245.4 -3.6,4.8 -6.5,7.8 -8.6,9.6 z m -291.6,-705.8 c -24.8,-1.3 -49.3,1.3 -73.4,7.8 -121,32.7 -213.7,157.5 -277.3,372.3 -57.3,-72.3 -128.6,-148.5 -217.4,-226.4 -20.3,-17.7 -51.2,-15.7 -68.9,4.6 -17.8,20.2 -15.8,51.1 4.5,68.9 110.1,96.5 191.2,189.5 250.9,274.6 -17.2,79.4 -31.3,168 -42.3,265.8 -31.1,275.1 9.6,452 111.8,485.2 43.2,14.1 105.5,0.8 150.7,-78.8 57.1,-100.3 62.7,-256.2 14.8,-417.2 -21.9,-73.8 -60.9,-168 -130.3,-274.3 20.6,-84.9 45,-157 73.3,-215.6 44.4,-92.3 98.3,-149.3 155.7,-164.9 76.3,-20.6 170.1,31.6 250.7,139.7 23.4,31.4 43.9,64.9 61,99.3 -85.9,102.9 -105.6,227.5 -91.3,319 12.2,77.8 48.9,131.4 98.2,143.2 23.2,5.5 68.1,6.3 109.7,-51.2 0.7,-0.9 1.3,-1.9 2,-2.9 63.6,-103 49.7,-251.4 -2.7,-386.3 13.8,-11.7 29.2,-22.9 46.6,-33.4 50.1,-30.4 88.8,-41.7 112.1,-32.6 37.1,14.4 59.4,91.7 79.1,159.8 20.4,70.7 41.5,143.7 85.1,194 16.5,19 66.6,76.7 131.7,64.3 76.4,-14.6 110.6,-112.3 146.8,-215.7 17.5,-50 35.5,-101.4 55.7,-134.8 34.3,41.7 89.3,172.6 127.2,262.8 56.7,135 115.4,274.6 175.6,341.9 33,36.9 65.2,48.7 95.5,35.1 58.2,-26.1 48.5,-110.1 27.2,-294 -13.4,-116.4 -31.8,-275.8 -9.9,-334.2 0.8,-1.9 1.4,-3.5 2,-4.8 27.2,10.1 86.6,70.6 123.1,107.8 74.4,75.8 144.7,147.4 214.2,151.1 27,1.4 50,-19.2 51.4,-46.1 1.4,-27 -19.2,-50 -46.2,-51.4 -31.6,-1.7 -102.7,-74.1 -149.7,-122 -79.5,-81 -148.1,-151 -216.2,-136.5 -22.1,4.6 -52.2,20.2 -70,67.5 -30.2,80.6 -12.7,232.7 4.3,379.8 5,42.9 10.9,94.4 14,136.2 -41,-67.7 -85.2,-173 -125.3,-268.3 -88.9,-211.6 -138.7,-322.5 -212,-331.7 -16.2,-2 -47.6,-0.4 -73.9,34.3 -33.3,44 -56.6,110.6 -79.2,175.1 -17.7,50.6 -50.7,145 -73.1,152 0.1,-0.1 -12.6,-1.5 -39.4,-32.4 -29.6,-34 -47.6,-96.6 -65.1,-157.1 -27.2,-94.2 -55.4,-191.7 -137.4,-223.7 -54.1,-21.1 -119,-8 -198.3,40.1 -13.5,8.2 -26.2,16.8 -38.2,25.7 -17.1,-31.4 -36.1,-61.2 -56.3,-88.3 -85.2,-114.3 -184.5,-178.1 -281.1,-183.3"
         style="fill:#8a9edd;fill-opacity:1;fill-rule:nonzero;stroke:none"
         id="path40" /><path
         d="m 23476.9,11286.8 h -4242.4 c -43.8,0 -79.3,35.5 -79.3,79.2 0,43.8 35.5,79.3 79.3,79.3 h 4242.4 c 43.7,0 79.2,-35.5 79.2,-79.3 0,-43.7 -35.5,-79.2 -79.2,-79.2"
         style="fill:#8a9edd;fill-opacity:1;fill-rule:nonzero;stroke:none"
         id="path42" /><path
         d="m 18758.3,11286.8 h -1688.5 c -43.7,0 -79.2,35.5 -79.2,79.2 0,43.8 35.5,79.3 79.2,79.3 h 1688.5 c 43.8,0 79.3,-35.5 79.3,-79.3 0,-43.7 -35.5,-79.2 -79.3,-79.2"
         style="fill:#8a9edd;fill-opacity:1;fill-rule:nonzero;stroke:none"
         id="path44" /><path
         d="m 23476.9,10621.9 h -6407.1 c -43.7,0 -79.2,35.5 -79.2,79.2 0,43.8 35.5,79.3 79.2,79.3 h 6407.1 c 43.7,0 79.2,-35.5 79.2,-79.3 0,-43.7 -35.5,-79.2 -79.2,-79.2"
         style="fill:#8a9edd;fill-opacity:1;fill-rule:nonzero;stroke:none"
         id="path46" /><path
         d="M 23062.8,13220.5 H 17490 c -66.8,0 -121,54.2 -121,121 0,66.8 54.2,121 121,121 h 5572.8 c 66.8,0 120.9,-54.2 120.9,-121 0,-66.8 -54.1,-121 -120.9,-121"
         style="fill:#eb5648;fill-opacity:1;fill-rule:nonzero;stroke:none"
         id="path48" /><path
         d="m 22228.5,12555.6 h -3904.3 c -66.8,0 -120.9,54.2 -120.9,121 0,66.8 54.1,121 120.9,121 h 3904.3 c 66.8,0 121,-54.2 121,-121 0,-66.8 -54.2,-121 -121,-121"
         style="fill:#eb5648;fill-opacity:1;fill-rule:nonzero;stroke:none"
         id="path50" /><path
         d="m 23476.9,9957 h -2072.1 c -43.8,0 -79.3,35.5 -79.3,79.2 0,43.8 35.5,79.3 79.3,79.3 h 2072.1 c 43.7,0 79.2,-35.5 79.2,-79.3 0,-43.7 -35.5,-79.2 -79.2,-79.2"
         style="fill:#8a9edd;fill-opacity:1;fill-rule:nonzero;stroke:none"
         id="path52" /><path
         d="m 20785.1,9957 h -3715.3 c -43.7,0 -79.2,35.5 -79.2,79.2 0,43.8 35.5,79.3 79.2,79.3 h 3715.3 c 43.8,0 79.3,-35.5 79.3,-79.3 0,-43.7 -35.5,-79.2 -79.3,-79.2"
         style="fill:#8a9edd;fill-opacity:1;fill-rule:nonzero;stroke:none"
         id="path54" /><path
         d="M 23476.9,9292.1 H 21469 c -43.8,0 -79.3,35.5 -79.3,79.2 0,43.8 35.5,79.3 79.3,79.3 h 2007.9 c 43.7,0 79.2,-35.5 79.2,-79.3 0,-43.7 -35.5,-79.2 -79.2,-79.2"
         style="fill:#8a9edd;fill-opacity:1;fill-rule:nonzero;stroke:none"
         id="path56" /><path
         d="m 20836.2,9292.1 h -1993.7 c -43.7,0 -79.2,35.5 -79.2,79.2 0,43.8 35.5,79.3 79.2,79.3 h 1993.7 c 43.8,0 79.3,-35.5 79.3,-79.3 0,-43.7 -35.5,-79.2 -79.3,-79.2"
         style="fill:#8a9edd;fill-opacity:1;fill-rule:nonzero;stroke:none"
         id="path58" /><path
         d="m 18297.3,9292.1 h -1227.5 c -43.7,0 -79.2,35.5 -79.2,79.2 0,43.8 35.5,79.3 79.2,79.3 h 1227.5 c 43.7,0 79.2,-35.5 79.2,-79.3 0,-43.7 -35.5,-79.2 -79.2,-79.2"
         style="fill:#8a9edd;fill-opacity:1;fill-rule:nonzero;stroke:none"
         id="path60" /><path
         d="m 23476.9,8627.2 h -6407.1 c -43.7,0 -79.2,35.5 -79.2,79.2 0,43.8 35.5,79.3 79.2,79.3 h 6407.1 c 43.7,0 79.2,-35.5 79.2,-79.3 0,-43.7 -35.5,-79.2 -79.2,-79.2"
         style="fill:#8a9edd;fill-opacity:1;fill-rule:nonzero;stroke:none"
         id="path62" /><path
         d="m 23476.9,7962.3 h -2691.8 c -43.8,0 -79.3,35.5 -79.3,79.2 0,43.8 35.5,79.3 79.3,79.3 h 2691.8 c 43.7,0 79.2,-35.5 79.2,-79.3 0,-43.7 -35.5,-79.2 -79.2,-79.2"
         style="fill:#8a9edd;fill-opacity:1;fill-rule:nonzero;stroke:none"
         id="path64" /><path
         d="m 20130.1,7962.3 h -3060.3 c -43.7,0 -79.2,35.5 -79.2,79.2 0,43.8 35.5,79.3 79.2,79.3 h 3060.3 c 43.7,0 79.2,-35.5 79.2,-79.3 0,-43.7 -35.5,-79.2 -79.2,-79.2"
         style="fill:#8a9edd;fill-opacity:1;fill-rule:nonzero;stroke:none"
         id="path66" /><path
         d="M 10253.2,13975.1 6331.23,12904.5 c -452.03,-123.4 -718.44,-589.8 -595.05,-1041.9 L 7761.62,4442.5 c 123.38,-452 589.85,-718.4 1041.87,-595.1 L 12725.4,4918 c 452.1,123.4 718.5,589.9 595.1,1041.9 L 11295,13380 c -123.3,452 -589.8,718.4 -1041.8,595.1"
         style="fill:#8a9edd;fill-opacity:1;fill-rule:nonzero;stroke:none"
         id="path68" /><path
         d="m 9012.07,5874.8 c -0.02,-0.1 -300.04,-595.3 -299.34,-595.4 0,-0.1 629.1,-316.7 629.1,-316.7 255.49,-139.4 572.51,128.1 471.96,399.7 -26.76,81 -84.42,151.8 -166.64,193.1 -0.06,0 -634.99,320 -635.08,319.3"
         style="fill:#1d3f70;fill-opacity:1;fill-rule:nonzero;stroke:none"
         id="path70" /><path
         d="m 7928.44,6044.4 c -81.01,-164.1 -14.57,-363 149.08,-445.4 l 634.67,-319.4 c 0.76,-0.3 300.07,595.3 299.75,595.6 -288.95,103.7 -853.07,609 -1083.5,169.2"
         style="fill:#ffffff;fill-opacity:1;fill-rule:nonzero;stroke:none"
         id="path72" /><path
         d="m 11936.7,6668.1 c 0,-0.1 -300,-595.4 -299.3,-595.5 l 629.1,-316.6 c 255.4,-139.5 572.5,128.1 471.9,399.6 -26.7,81 -84.4,151.8 -166.6,193.2 -0.1,0 -635,320 -635.1,319.3"
         style="fill:#1d3f70;fill-opacity:1;fill-rule:nonzero;stroke:none"
         id="path74" /><path
         d="m 10853.1,6837.7 c -81,-164.1 -14.6,-363.1 149.1,-445.4 l 634.6,-319.4 c 0.8,-0.3 300.1,595.3 299.8,595.6 -289,103.7 -853.1,608.9 -1083.5,169.2"
         style="fill:#ffffff;fill-opacity:1;fill-rule:nonzero;stroke:none"
         id="path76" /><path
         d="m 7418.89,11748.6 c -0.03,-0.1 -300.04,-595.3 -299.34,-595.4 l 629.1,-316.6 c 255.48,-139.5 572.5,128.1 471.96,399.6 -26.76,81 -84.42,151.8 -166.65,193.2 -0.05,0 -634.99,319.9 -635.07,319.2"
         style="fill:#1d3f70;fill-opacity:1;fill-rule:nonzero;stroke:none"
         id="path78" /><path
         d="m 6335.25,11918.2 c -81.01,-164.1 -14.56,-363 149.09,-445.4 l 634.67,-319.4 c 0.75,-0.3 300.06,595.3 299.75,595.6 -288.96,103.7 -853.07,609 -1083.51,169.2"
         style="fill:#ffffff;fill-opacity:1;fill-rule:nonzero;stroke:none"
         id="path80" /><path
         d="m 10343.5,12541.9 c 0,-0.1 -300,-595.4 -299.3,-595.5 l 629.1,-316.6 c 255.5,-139.4 572.5,128.1 471.9,399.6 -26.7,81 -84.4,151.8 -166.6,193.2 -0.1,0 -635,320 -635.1,319.3"
         style="fill:#1d3f70;fill-opacity:1;fill-rule:nonzero;stroke:none"
         id="path82" /><path
         d="m 9259.89,12711.5 c -81.01,-164.1 -14.57,-363.1 149.09,-445.4 l 634.62,-319.4 c 0.8,-0.3 300.1,595.3 299.8,595.6 -289,103.7 -853.08,609 -1083.51,169.2"
         style="fill:#ffffff;fill-opacity:1;fill-rule:nonzero;stroke:none"
         id="path84" /><path
         d="m 7949.95,9790.7 c -0.03,-0.1 -300.04,-595.4 -299.34,-595.5 l 629.1,-316.6 c 255.48,-139.4 572.51,128.1 471.96,399.6 -26.76,81 -84.42,151.8 -166.64,193.2 -0.06,0 -635,320 -635.08,319.3"
         style="fill:#1d3f70;fill-opacity:1;fill-rule:nonzero;stroke:none"
         id="path86" /><path
         d="m 6866.31,9960.3 c -81.01,-164.1 -14.56,-363 149.09,-445.4 l 634.67,-319.4 c 0.76,-0.3 300.06,595.3 299.75,595.6 -288.95,103.7 -853.07,609 -1083.51,169.2"
         style="fill:#ffffff;fill-opacity:1;fill-rule:nonzero;stroke:none"
         id="path88" /><path
         d="m 10874.6,10584 c 0,-0.1 -300.1,-595.4 -299.4,-595.5 l 629.1,-316.6 c 255.5,-139.5 572.6,128.1 472,399.6 -26.8,81 -84.4,151.8 -166.6,193.2 -0.1,0 -635,320 -635.1,319.3"
         style="fill:#1d3f70;fill-opacity:1;fill-rule:nonzero;stroke:none"
         id="path90" /><path
         d="m 9790.95,10753.6 c -81.01,-164.2 -14.56,-363.1 149.09,-445.4 l 634.66,-319.4 c 0.8,-0.3 300.1,595.3 299.8,595.6 -289,103.7 -853.1,608.9 -1083.55,169.2"
         style="fill:#ffffff;fill-opacity:1;fill-rule:nonzero;stroke:none"
         id="path92" /><path
         d="m 8481.01,7832.8 c -0.03,-0.1 -300.04,-595.4 -299.34,-595.5 l 629.1,-316.6 c 255.48,-139.5 572.51,128.1 471.96,399.6 -26.76,81 -84.42,151.8 -166.64,193.2 -0.06,0 -635,320 -635.08,319.3"
         style="fill:#1d3f70;fill-opacity:1;fill-rule:nonzero;stroke:none"
         id="path94" /><path
         d="m 7397.37,8002.3 c -81.01,-164.1 -14.56,-363 149.09,-445.3 l 634.67,-319.4 c 0.76,-0.3 300.06,595.3 299.75,595.6 -288.95,103.6 -853.07,608.9 -1083.51,169.1"
         style="fill:#ffffff;fill-opacity:1;fill-rule:nonzero;stroke:none"
         id="path96" /><path
         d="m 11405.6,8626 c 0,-0.1 -300,-595.3 -299.3,-595.4 0,-0.1 629.1,-316.7 629.1,-316.7 255.5,-139.4 572.5,128.1 472,399.7 -26.8,81 -84.5,151.8 -166.7,193.1 0,0 -635,320 -635.1,319.3"
         style="fill:#1d3f70;fill-opacity:1;fill-rule:nonzero;stroke:none"
         id="path98" /><path
         d="m 10322,8795.6 c -81,-164.1 -14.6,-363 149.1,-445.4 l 634.7,-319.4 c 0.7,-0.3 300,595.3 299.7,595.6 -288.9,103.7 -853.1,609 -1083.5,169.2"
         style="fill:#ffffff;fill-opacity:1;fill-rule:nonzero;stroke:none"
         id="path100" /><path
         d="m 8427.2,12970.9 c -67.86,-18.4 -107.95,-88.3 -89.55,-156.1 L 10473.3,4941.1 c 18.4,-67.8 88.3,-107.9 156.2,-89.5 67.8,18.4 107.9,88.3 89.5,156.2 l -2135.6,7873.6 c -18.41,67.9 -88.34,108 -156.2,89.5"
         style="fill:#7689d6;fill-opacity:1;fill-rule:nonzero;stroke:none"
         id="path102" /><path
         d="M 16635,9697.6 V 4843.7 c 0,-566.8 -459.6,-1026.4 -1026.5,-1026.4 h -4172.3 c -566.8,0 -1026.3,459.6 -1026.3,1026.4 v 4853.9 c 0,409.6 158.3,780.4 414.3,1048.7 256,268.5 609.6,434.5 1000.3,434.5 106.5,0 193,90.5 193,202.2 v 574.8 h 3009.9 V 11383 c 0,-111.7 86.3,-202.2 192.8,-202.2 781.3,0 1414.8,-664 1414.8,-1483.2"
         style="fill:#3a72aa;fill-opacity:1;fill-rule:nonzero;stroke:none"
         id="path104" /><path
         d="M 16635,9697.6 V 4843.7 c 0,-566.8 -459.6,-1026.4 -1026.5,-1026.4 h -4172.3 c -566.8,0 -1026.3,459.6 -1026.3,1026.4 6130.6,0 6225.1,4853.9 6225.1,4853.9"
         style="fill:#23659b;fill-opacity:1;fill-rule:nonzero;stroke:none"
         id="path106" /><path
         d="M 14898.7,11547.4 H 12146 c -241,0 -436.4,195.4 -436.4,436.4 v 825.9 c 0,241.1 195.4,436.5 436.4,436.5 h 2752.7 c 241.1,0 436.5,-195.4 436.5,-436.5 v -825.9 c 0,-241 -195.4,-436.4 -436.5,-436.4"
         style="fill:#23659b;fill-opacity:1;fill-rule:nonzero;stroke:none"
         id="path108" /><path
         d="m 15831.1,5094.2 h -4617.5 v 4720.2 h 4617.5 V 5094.2"
         style="fill:#ffffff;fill-opacity:1;fill-rule:nonzero;stroke:none"
         id="path110" /><path
         d="m 12085.2,9034.7 h 149.6 c 64.3,0 107.8,-10.9 129.5,-32.3 22,-21.6 32.6,-52.4 32.6,-94.3 0,-28.1 -6.8,-52.2 -21,-73.7 -13.5,-20.5 -30.3,-32.8 -51.6,-37.8 -59.9,-15.7 -85.4,-19 -96.2,-19 h -142.9 z M 12727,8330 c -9.5,22.1 -27.4,52.2 -54.8,92 -27.7,40.2 -48.5,65.9 -63.7,78.7 -14.8,12.6 -34.6,24.8 -60.1,37 37.5,13 68.8,28.2 93.3,45.5 53,37.3 95.1,86.6 125.3,146.6 30.2,59.8 45.5,131.6 45.5,213.5 0,93.9 -20,175 -59.4,241 -39.9,66.6 -93.3,113 -158.7,137.7 -63.6,24.1 -156.2,36.3 -275,36.3 h -632.6 c -9.5,0 -17.1,-7.7 -17.1,-17.1 V 7908 c 0,-9.5 7.6,-17.2 17.1,-17.2 h 381.2 c 9.5,0 17.2,7.7 17.2,17.2 v 564.5 h 16.4 c 30.8,0 57.7,-9.6 81.9,-29.2 12.4,-10.4 33.6,-37.1 64.2,-104.6 l 202.9,-437.9 c 2.8,-6.1 8.9,-10 15.6,-10 h 428.8 c 5.8,0 11.2,3 14.4,7.8 3.2,4.9 3.7,11 1.3,16.3 L 12727,8330"
         style="fill:#eb5648;fill-opacity:1;fill-rule:nonzero;stroke:none"
         id="path112" /><path
         d="m 14328.8,7916.4 -413.7,730.8 377.7,685.7 c 3,5.3 2.9,11.8 -0.2,17 -3.1,5.2 -8.7,8.4 -14.8,8.4 h -413.9 c -6.6,0 -12.6,-3.8 -15.5,-9.7 l -196.3,-409.1 -201.8,409.3 c -2.9,5.8 -8.9,9.5 -15.4,9.5 h -418.1 c -6.1,0 -11.7,-3.2 -14.8,-8.5 -3.1,-5.2 -3.1,-11.7 -0.1,-17 l 380.4,-677.9 -418.9,-738.5 c -3,-5.3 -3,-11.8 0.1,-17.1 3,-5.2 8.7,-8.5 14.8,-8.5 h 423.9 c 6.4,0 12.2,3.6 15.2,9.2 l 227.4,431.6 227.4,-431.6 c 3,-5.6 8.8,-9.2 15.2,-9.2 h 426.4 c 6.1,0 11.8,3.3 14.8,8.5 3.1,5.3 3.2,11.8 0.2,17.1"
         style="fill:#eb5648;fill-opacity:1;fill-rule:nonzero;stroke:none"
         id="path114" /><path
         d="m 15403.6,7340.3 h -3785.2 c -31.5,0 -57,25.5 -57,57 0,31.5 25.5,57 57,57 h 3785.2 c 31.5,0 57,-25.5 57,-57 0,-31.5 -25.5,-57 -57,-57"
         style="fill:#8a9edd;fill-opacity:1;fill-rule:nonzero;stroke:none"
         id="path116" /><path
         d="m 15403.6,6864.3 h -2110.4 c -31.5,0 -57.1,25.5 -57.1,57 0,31.5 25.6,57 57.1,57 h 2110.4 c 31.5,0 57,-25.5 57,-57 0,-31.5 -25.5,-57 -57,-57"
         style="fill:#8a9edd;fill-opacity:1;fill-rule:nonzero;stroke:none"
         id="path118" /><path
         d="m 12874.7,6864.3 h -1256.3 c -31.5,0 -57,25.5 -57,57 0,31.5 25.5,57 57,57 h 1256.3 c 31.5,0 57,-25.5 57,-57 0,-31.5 -25.5,-57 -57,-57"
         style="fill:#8a9edd;fill-opacity:1;fill-rule:nonzero;stroke:none"
         id="path120" /><path
         d="m 15403.6,6388.3 h -3785.2 c -31.5,0 -57,25.5 -57,57 0,31.5 25.5,57 57,57 h 3785.2 c 31.5,0 57,-25.5 57,-57 0,-31.5 -25.5,-57 -57,-57"
         style="fill:#8a9edd;fill-opacity:1;fill-rule:nonzero;stroke:none"
         id="path122" /><path
         d="M 15403.6,5912.3 H 14331 c -31.5,0 -57,25.5 -57,57 0,31.5 25.5,57 57,57 h 1072.6 c 31.5,0 57,-25.5 57,-57 0,-31.5 -25.5,-57 -57,-57"
         style="fill:#8a9edd;fill-opacity:1;fill-rule:nonzero;stroke:none"
         id="path124" /><path
         d="m 13922.4,5912.3 h -2304 c -31.5,0 -57,25.5 -57,57 0,31.5 25.5,57 57,57 h 2304 c 31.5,0 57,-25.5 57,-57 0,-31.5 -25.5,-57 -57,-57"
         style="fill:#8a9edd;fill-opacity:1;fill-rule:nonzero;stroke:none"
         id="path126" /><path
         d="m 15403.6,5436.3 h -2662.2 c -31.5,0 -57,25.5 -57,57 0,31.5 25.5,57 57,57 h 2662.2 c 31.5,0 57,-25.5 57,-57 0,-31.5 -25.5,-57 -57,-57"
         style="fill:#8a9edd;fill-opacity:1;fill-rule:nonzero;stroke:none"
         id="path128" /><path
         d="m 12345.9,5436.3 h -727.5 c -31.5,0 -57,25.5 -57,57 0,31.5 25.5,57 57,57 h 727.5 c 31.5,0 57,-25.5 57,-57 0,-31.5 -25.5,-57 -57,-57"
         style="fill:#8a9edd;fill-opacity:1;fill-rule:nonzero;stroke:none"
         id="path130" /><path
         d="m 12144.1,11742.4 v 0 c -74.4,0 -134.8,60.4 -134.8,134.9 v 1039 c 0,74.4 60.4,134.8 134.8,134.8 v 0 c 74.5,0 134.9,-60.4 134.9,-134.8 v -1039 c 0,-74.5 -60.4,-134.9 -134.9,-134.9"
         style="fill:#3a72aa;fill-opacity:1;fill-rule:nonzero;stroke:none"
         id="path132" /><path
         d="m 13246.7,11742.4 v 0 c -74.5,0 -134.8,60.4 -134.8,134.9 v 1039 c 0,74.4 60.3,134.8 134.8,134.8 v 0 c 74.5,0 134.9,-60.4 134.9,-134.8 v -1039 c 0,-74.5 -60.4,-134.9 -134.9,-134.9"
         style="fill:#3a72aa;fill-opacity:1;fill-rule:nonzero;stroke:none"
         id="path134" /><path
         d="m 12695.4,11742.4 v 0 c -74.4,0 -134.8,60.4 -134.8,134.9 v 1039 c 0,74.4 60.4,134.8 134.8,134.8 v 0 c 74.5,0 134.9,-60.4 134.9,-134.8 v -1039 c 0,-74.5 -60.4,-134.9 -134.9,-134.9"
         style="fill:#3a72aa;fill-opacity:1;fill-rule:nonzero;stroke:none"
         id="path136" /><path
         d="m 13798,11742.4 v 0 c -74.5,0 -134.8,60.4 -134.8,134.9 v 1039 c 0,74.4 60.3,134.8 134.8,134.8 v 0 c 74.5,0 134.9,-60.4 134.9,-134.8 v -1039 c 0,-74.5 -60.4,-134.9 -134.9,-134.9"
         style="fill:#3a72aa;fill-opacity:1;fill-rule:nonzero;stroke:none"
         id="path138" /><path
         d="m 14349.3,11742.4 v 0 c -74.5,0 -134.8,60.4 -134.8,134.9 v 1039 c 0,74.4 60.3,134.8 134.8,134.8 v 0 c 74.5,0 134.9,-60.4 134.9,-134.8 v -1039 c 0,-74.5 -60.4,-134.9 -134.9,-134.9"
         style="fill:#3a72aa;fill-opacity:1;fill-rule:nonzero;stroke:none"
         id="path140" /><path
         d="m 14900.6,11742.4 v 0 c -74.5,0 -134.8,60.4 -134.8,134.9 v 1039 c 0,74.4 60.3,134.8 134.8,134.8 v 0 c 74.5,0 134.9,-60.4 134.9,-134.8 v -1039 c 0,-74.5 -60.4,-134.9 -134.9,-134.9"
         style="fill:#3a72aa;fill-opacity:1;fill-rule:nonzero;stroke:none"
         id="path142" /><path
         d="m 17976.1,4178.9 v -458.8 c 0,-370.3 -639.4,-670.5 -1428.2,-670.5 -397.8,0 -757.6,76.4 -1016.6,199.6 -254.4,121 -411.5,287.3 -411.5,470.9 v 458.8 h 2856.3"
         style="fill:#f39200;fill-opacity:1;fill-rule:nonzero;stroke:none"
         id="path144" /><path
         d="m 17976.1,4178.9 c -13.4,-802.3 -2684.7,-972.6 -2850.7,-59.8 -6.1,33.5 -7.8,65.9 -5.5,97.2 39.7,531.4 1244.9,751.5 2078.3,560.4 412.4,-94.6 733.8,-289.8 777.9,-597.8"
         style="fill:#f9b233;fill-opacity:1;fill-rule:nonzero;stroke:none"
         id="path146" /><path
         d="m 17202.3,4775 -1253,-1254.2 c -32.5,6.5 -57.1,25.4 -88.3,32.9 l 1226.8,1246.6 c 32.5,-6.5 83.3,-17.7 114.5,-25.3"
         style="fill:#f39200;fill-opacity:1;fill-rule:nonzero;stroke:none"
         id="path148" /><path
         d="m 11046.1,3445.7 c 0,0.2 116.7,1005.4 117.7,1004.9 l 1062,-123.9 c 440.4,-36.6 618.9,-640.5 264.7,-900.8 -101.6,-80.4 -233.8,-122 -372.6,-105.8 -0.1,0.1 -1072.3,124.6 -1071.8,125.6"
         style="fill:#eb5648;fill-opacity:1;fill-rule:nonzero;stroke:none"
         id="path150" /><path
         d="m 9530.55,4135.6 c 34.34,275.8 284.71,472.5 560.95,440.2 l 1071.4,-125.1 c 1.2,-0.2 -116.7,-1005.3 -117.4,-1005.4 -452.9,109.8 -1590.04,-59.6 -1514.95,690.3"
         style="fill:#ffffff;fill-opacity:1;fill-rule:nonzero;stroke:none"
         id="path152" /><path
         d="M 7021.09,5783.5 C 6964,4919.6 6856.66,4057.6 6738.48,3200 c -27.52,-203.2 -269.74,-241.9 -292.19,-20.3 -20.16,220.3 -13.93,426.9 -31.46,648.3 -40.37,645.5 -97.72,1292.1 -169.23,1935 -49.14,557.8 795,581.3 775.49,20.5"
         style="fill:#f99370;fill-opacity:1;fill-rule:nonzero;stroke:none"
         id="path154" /><path
         d="M 6398.09,5706.1 5691,3144.4 c -22.77,-85.7 -79.46,-116.5 -164.84,-93.7 -76.22,20.4 -124.66,-4.6 -118.03,71.6 l 225.85,2718.1 c 63.84,554 891.61,409.3 764.11,-134.3"
         style="fill:#f99370;fill-opacity:1;fill-rule:nonzero;stroke:none"
         id="path156" /><path
         d="m 6738.48,3200 c 329.44,-15.8 425.38,-128.3 452.37,-203.6 0.15,-0.4 0.29,-0.8 0.42,-1.2 11.67,-32.9 -13.45,-67.4 -48.3,-67.5 l -716.85,-2.3 c -12.11,21 -18.81,44.4 -21.78,68.4 -12.21,97.6 36.9,205.2 36.9,205.2 0,0 148.62,-38.4 297.24,1"
         style="fill:#1d3f70;fill-opacity:1;fill-rule:nonzero;stroke:none"
         id="path158" /><path
         d="m 7190.85,2996.4 -786.51,-2.6 c 2.97,-24 9.67,-47.4 21.78,-68.4 l 716.85,2.3 c 34.85,0.1 59.97,34.6 48.3,67.5 l -0.42,1.2"
         style="fill:#395b96;fill-opacity:1;fill-rule:nonzero;stroke:none"
         id="path160" /><path
         d="m 5759.22,3001.5 v -64.4 h -416.25 v 64.4 c 0,115.3 93.19,208.7 208.07,208.7 114.98,0 208.18,-93.4 208.18,-208.7"
         style="fill:#1d3f70;fill-opacity:1;fill-rule:nonzero;stroke:none"
         id="path162" /><path
         d="m 5759.22,3001.5 v -64.4 h -416.25 v 64.4 h 416.25"
         style="fill:#395b96;fill-opacity:1;fill-rule:nonzero;stroke:none"
         id="path164" /><path
         d="m 5584.03,9453 c -79.36,-137.4 -47.18,-304.6 71.89,-373.4 119.06,-68.7 279.92,-13 359.29,124.5 79.37,137.4 47.19,304.6 -71.88,373.4 -119.07,68.7 -279.93,13 -359.3,-124.5"
         style="fill:#163260;fill-opacity:1;fill-rule:nonzero;stroke:none"
         id="path166" /><path
         d="m 5915.13,9309.2 c 0,0 -280.51,110.5 -307.18,511.7 -27.99,421.1 384.11,505.7 550.11,386 l -242.93,-897.7"
         style="fill:#163260;fill-opacity:1;fill-rule:nonzero;stroke:none"
         id="path168" /><path
         d="m 6415.45,8996 c 0,0 694.93,-149.4 959.87,-1110.1 L 6703.95,7733 6415.45,8996"
         style="fill:#ffffff;fill-opacity:1;fill-rule:nonzero;stroke:none"
         id="path170" /><path
         d="m 6713.91,8740.5 c 0,0 203.93,-189.9 247.11,-308.6 43.18,-118.8 -117.47,-126 -117.47,-126 l -129.64,434.6"
         style="fill:#d1e0f2;fill-opacity:1;fill-rule:nonzero;stroke:none"
         id="path172" /><path
         d="m 6079.5,10242.8 c 406.01,114.3 676.05,-475.7 481.25,-783.1 l -481.25,783.1"
         style="fill:#163260;fill-opacity:1;fill-rule:nonzero;stroke:none"
         id="path174" /><path
         d="m 5634.62,6878.7 h 1267.4 c 6.53,501.2 -51.31,1007.8 -169.02,1494.5 -70.25,284 -110.65,511.1 -381.31,662.9 19.29,168.2 -7.02,410.7 -30.48,510.7 -12.34,53.9 -50.95,94.7 -94.35,108.3 -111.03,38.5 -242.47,-56 -208.3,-181.2 10.06,6.3 42.29,-350.5 20.05,-449.5 -550.1,-175.6 -269.69,-800.6 -307.28,-1219.9 -2.9,-308.1 -32.62,-624.6 -96.71,-925.8"
         style="fill:#f99370;fill-opacity:1;fill-rule:nonzero;stroke:none"
         id="path176" /><path
         d="m 6015.56,9490.2 c 0.77,-5.5 1.73,-11 3,-16.3 7.26,4.8 27.58,-192 27.76,-334.9 134.27,-61.1 283.54,-33.6 310.94,-28 7.72,195.5 15.56,490.8 -130.4,544.1 -104.81,44.8 -229.74,-50.7 -211.3,-164.9"
         style="fill:#e57d61;fill-opacity:1;fill-rule:nonzero;stroke:none"
         id="path178" /><path
         d="m 5804.59,9621.7 c 22.54,-139.9 69.77,-297.5 180.26,-390.1 h 0.18 c 44.64,-37.1 99.04,-60.7 156.68,-72 326.43,-91.3 709.25,288.2 454.15,564.6 -92.7,85.6 -112.36,237.4 -186.25,322.6 -107.45,155.9 -343.25,147.8 -470.57,20.6 -115.08,-114.9 -154.42,-273.4 -134.45,-445.7"
         style="fill:#f99370;fill-opacity:1;fill-rule:nonzero;stroke:none"
         id="path180" /><path
         d="m 6338.47,9708 c 12.8,24.3 -25.68,43.9 -37.76,19.2 -12.81,-24.3 25.67,-43.9 37.76,-19.2"
         style="fill:#c16256;fill-opacity:1;fill-rule:nonzero;stroke:none"
         id="path182" /><path
         d="m 6516.49,9737.9 c 12.81,24.4 -25.67,43.9 -37.76,19.2 -12.8,-24.3 25.68,-43.8 37.76,-19.2"
         style="fill:#c16256;fill-opacity:1;fill-rule:nonzero;stroke:none"
         id="path184" /><path
         d="m 6449.17,9553.8 c 38.77,0.4 99.05,26.6 50.03,61 -39.99,21.7 -69.41,104.6 -69.7,105.4 -41.37,31.3 17.51,-97.9 62.06,-119.5 31.37,-19.2 -33.97,-37.8 -61,-28.3 -4.24,1.4 -8.74,-1 -10.08,-5.2 -2.29,-14.4 18.66,-12.4 28.69,-13.4"
         style="fill:#c16256;fill-opacity:1;fill-rule:nonzero;stroke:none"
         id="path186" /><path
         d="m 7246.91,4227 c 0,0 -944.89,-521.2 -2018.33,-4.4 0,0 7.2,102.6 19.95,271.3 55.84,748.1 216.43,2797.5 310.5,2983.9 145.4,-37.8 294.67,-63.6 443.42,-80.5 326.33,-38 718.16,-35.8 1026.09,-1.2 41.56,-215.5 201.64,-2226.4 217.08,-3052 0.9,-42.3 1.29,-81.5 1.29,-117.1"
         style="fill:#ce4abf;fill-opacity:1;fill-rule:nonzero;stroke:none"
         id="path188" /><path
         d="m 5572.58,7525.1 c 0,0 621.77,-551.1 1456.03,-129 -1.13,1.5 -117.68,1313.9 -676.92,1640 0,0 67.41,-255.1 -313.08,-11.7 C 5569.2,8870.3 5746.1,8114 5572.58,7525.1"
         style="fill:#3a72aa;fill-opacity:1;fill-rule:nonzero;stroke:none"
         id="path190" /><path
         d="m 7028.64,7396.1 c 0,0 -749.07,-303.9 -1456.06,129 l -77.04,-190.7 c 0,0 577.36,-492.2 1556.9,-164.6 l -23.8,226.3"
         style="fill:#a523a2;fill-opacity:1;fill-rule:nonzero;stroke:none"
         id="path192" /><path
         d="m 6002.38,7397.3 c -0.17,-1.2 -0.26,-2.4 -0.43,-3.6 -29.62,-232.6 -65.62,-1483.8 -65.62,-2600.7 0,0 -40.82,-4.8 -105.84,-7.5 -174.9,-7.4 -524.89,0 -725.55,153.9 0,0 118.68,2162.2 154.24,2351.9 96.63,573.5 392.27,1150.3 663.63,1630.6 14.12,25 28.16,49.7 42.11,74.1 341.37,-471.4 148.21,-1040.9 37.46,-1598.7"
         style="fill:#ffffff;fill-opacity:1;fill-rule:nonzero;stroke:none"
         id="path194" /><path
         d="m 5804.59,9621.7 c 22.54,-139.9 69.77,-297.5 180.26,-390.1 h 0.18 c -61.23,76.1 -99.43,246.2 -99.43,246.2 l 28.94,75.6 c 485.73,156.8 444.45,548.2 444.45,548.2 -72.46,63.3 -170.65,74.8 -263.73,51.7 -228.04,-59 -319.36,-305.3 -290.67,-531.6"
         style="fill:#e57d61;fill-opacity:1;fill-rule:nonzero;stroke:none"
         id="path196" /><path
         d="m 6309.63,10137.2 c 0,0 36.46,-386.9 -398.23,-544.8 l -156.01,86.1 c -152.15,298.5 125.93,739.1 554.24,458.7"
         style="fill:#163260;fill-opacity:1;fill-rule:nonzero;stroke:none"
         id="path198" /><path
         d="m 7305.09,4846.9 c -38.06,-32 -102.39,-47.8 -156.65,-55.6 v -0.1 c -52.79,-7.6 -96.02,-7.6 -96.02,-7.6 -80.95,555.2 -230.62,2997.7 -339.13,3547.7 -0.43,2.1 -0.86,4.3 -1.29,6.4 -58.13,254.3 -231.75,482.5 -360.32,698.4 4.3,-1.4 8.52,-2.8 12.83,-4.2 539.62,-178.6 637.19,-1064.8 730.71,-2219.1 67.43,-832.4 209.87,-1965.9 209.87,-1965.9"
         style="fill:#ffffff;fill-opacity:1;fill-rule:nonzero;stroke:none"
         id="path200" /><path
         d="m 5952.34,6987 c 0,0 -421.38,-81.1 -712.55,118.6 0,0 0.46,106.5 19.37,185.6 18.92,79.1 700.06,-244 700.06,-244 l -6.88,-60.2"
         style="fill:#d1e0f2;fill-opacity:1;fill-rule:nonzero;stroke:none"
         id="path202" /><path
         d="m 6002.38,7397.3 c -0.17,-1.2 -0.26,-2.4 -0.43,-3.6 -29.62,-232.6 -65.62,-1483.8 -65.62,-2600.7 0,0 -40.82,-4.8 -105.84,-7.5 l 81.73,2544 c 146.83,609.5 349.72,1206.5 52.7,1666.5 0,0 17.55,10.3 36.49,17.7 17.59,6.8 36.66,10.6 37.2,10.7 341.37,-471.4 74.52,-1069.3 -36.23,-1627.1"
         style="fill:#d1e0f2;fill-opacity:1;fill-rule:nonzero;stroke:none"
         id="path204" /><path
         d="m 7148.44,4791.3 v -0.1 c -52.79,-7.6 -96.02,-7.6 -96.02,-7.6 -80.95,555.2 -230.62,2997.7 -339.13,3547.7 -0.43,2.1 -0.86,4.3 -1.29,6.4 -58.13,254.3 -231.75,482.5 -360.32,698.4 4.3,-1.4 8.52,-2.8 12.83,-4.2 26.95,-9.2 54.89,-20 80.38,-33.4 25.58,-27.7 54.74,-65.8 81.95,-102.8 141.32,-190.2 262.06,-439.3 293.06,-696.1 56.75,-456.8 271.62,-2942 328.54,-3408.3"
         style="fill:#d1e0f2;fill-opacity:1;fill-rule:nonzero;stroke:none"
         id="path206" /><path
         d="m 6053.86,8321.2 c 0,0 -41.1,-159.8 -171.53,-343 -130.43,-183.3 -342.25,-559.3 121.78,-568.5 l -18.2,-139.9 -518.3,62 104.97,715 481.28,274.4"
         style="fill:#d1e0f2;fill-opacity:1;fill-rule:nonzero;stroke:none"
         id="path208" /><path
         d="M 5813.57,8906.1 C 5468.6,8651 5140.18,8176 5106.2,7754.5 c -35.68,-799.7 708.72,-863.5 1275.93,-555.3 119.56,60.8 20.16,244.5 -108.14,210.5 -93.46,-24 -159.53,-45 -251.67,-47.6 -817.81,-22.9 -325.69,636 -8.58,932.4 0,0 30.49,773.4 -200.17,611.6"
         style="fill:#f99370;fill-opacity:1;fill-rule:nonzero;stroke:none"
         id="path210" /><path
         d="m 5236.1,7160.1 c 79.29,-46.7 177.15,-82 295.89,-102.8 0,0 1.44,261.4 180.1,346.9 0,0 -166.39,230.5 62,540.9 123.98,168.5 285.73,282.7 312.37,505.4 16.09,134.4 -121.54,545.5 -121.54,545.5 -139.15,-36.4 -511.87,-171.5 -758.86,-556.5 -285.74,-445.4 -396.76,-1028 30.04,-1279.4"
         style="fill:#ffffff;fill-opacity:1;fill-rule:nonzero;stroke:none"
         id="path212" /><path
         d="m 6452.98,6895.4 917.04,70.5 281.89,1569.8 -917.04,-70.5 -281.89,-1569.8"
         style="fill:#1d3f70;fill-opacity:1;fill-rule:nonzero;stroke:none"
         id="path214" /><path
         d="m 7437.86,7514.8 c 40.2,-7.8 120.13,36.7 59.04,72.7 -23.24,12.5 -44.99,1.4 -63.83,-6.2 l 1.92,-0.1 c -62.02,2.8 -51.93,-63.4 2.87,-66.4"
         style="fill:#f99370;fill-opacity:1;fill-rule:nonzero;stroke:none"
         id="path216" /><path
         d="m 7460.05,7575.6 c 27.4,3.1 58.01,13.3 71.02,39.5 17.48,42.3 -69.59,66.3 -85,28.9 0.21,0.8 1.01,0.9 -0.78,-0.1 -1.73,-0.8 -5.09,-1.8 -7.37,-2.1 -0.06,0 -1.15,-0.1 0.34,0 -62.55,-8.9 -27.06,-73 21.79,-66.2"
         style="fill:#f99370;fill-opacity:1;fill-rule:nonzero;stroke:none"
         id="path218" /><path
         d="m 7485.67,7638.4 37.98,14.1 c 54.57,25.5 -9.65,78.6 -47.84,60.5 l -37.98,-14.1 c -54.57,-25.5 9.64,-78.6 47.84,-60.5"
         style="fill:#f99370;fill-opacity:1;fill-rule:nonzero;stroke:none"
         id="path220" /><path
         d="m 7497.87,7696.5 37.99,14.1 c 54.56,25.5 -9.65,78.7 -47.85,60.5 l -37.98,-14.1 c -54.57,-25.5 9.65,-78.6 47.84,-60.5"
         style="fill:#f99370;fill-opacity:1;fill-rule:nonzero;stroke:none"
         id="path222" /><path
         d="m 6262.81,7308.2 c 0.2,9 2.95,17.3 7.5,24.4 -12.48,15.1 -22.26,56.9 -8.75,73.9 65.95,82.7 232.6,131 328.14,144.6 37.99,5.4 76.46,6.8 114.44,4.5 36.98,-1.4 37.64,-59.4 0.1,-61 -40.64,-2.6 -80.54,-9.7 -119.14,-21.8 48.7,5.2 99,7.4 148,5.9 36.12,0.3 40.52,-56 4.23,-60.8 -68.82,-9.8 -137.01,-27.5 -202.6,-50.4 64.69,7.7 128.89,19.1 192.47,33.4 36.9,8.8 52.08,-48.8 15.27,-59.1 -69.47,-21.4 -140.05,-39 -211.47,-52.6 36.17,2.1 73.4,6.1 109.33,10.6 36.29,5.2 47.61,-51.1 11.44,-59.9 -13.21,-3.5 -26.43,-7.2 -39.72,-10.6 -94.01,-23.2 -190.15,-41 -287.37,-42.4 -46.37,-5.1 -78.82,51.2 -48.47,87.5 -8.52,8.7 -13.68,20.7 -13.4,33.8"
         style="fill:#f99370;fill-opacity:1;fill-rule:nonzero;stroke:none"
         id="path224" /><path
         d="m 6091.37,9564.7 c 3.53,0 6.58,2.6 6.99,6.2 0.45,3.9 -2.33,7.4 -6.2,7.8 l -179.96,20.7 c -3.84,0.5 -7.36,-2.3 -7.8,-6.2 -0.44,-3.8 2.33,-7.3 6.2,-7.8 l 179.96,-20.7 c 0.27,0 0.54,0 0.81,0"
         style="fill:#c16256;fill-opacity:1;fill-rule:nonzero;stroke:none"
         id="path226" /><path
         d="m 6027.78,9337.7 c 2.4,0 4.74,1.2 6.06,3.4 1.99,3.4 0.9,7.7 -2.44,9.7 L 5848.47,9460 c -3.34,1.9 -7.67,0.9 -9.66,-2.5 -2,-3.3 -0.91,-7.7 2.43,-9.6 l 182.93,-109.2 c 1.13,-0.7 2.38,-1 3.61,-1"
         style="fill:#c16256;fill-opacity:1;fill-rule:nonzero;stroke:none"
         id="path228" /><path
         d="m 5715.74,9551.1 c 34.41,-159 228.54,-118 195.66,41.3 -34.42,159 -228.54,118 -195.66,-41.3"
         style="fill:#f99370;fill-opacity:1;fill-rule:nonzero;stroke:none"
         id="path230" /><path
         d="m 5766.2,9518.2 c 5.28,-0.1 9.29,5.3 7.66,10.4 -30.3,84.5 7.19,120.1 64.23,96.6 9.57,-3.9 15.59,11.3 5.83,14.9 -66.76,27.3 -121.56,-15 -85.38,-116.2 1.05,-3.5 4.22,-5.7 7.66,-5.7"
         style="fill:#c16256;fill-opacity:1;fill-rule:nonzero;stroke:none"
         id="path232" /><path
         d="m 5841.01,9529.4 c 24.89,2 -22.55,78.8 -83.33,82.9 -4.3,0.3 -8.24,-3.1 -8.53,-7.5 -0.29,-4.4 3.05,-8.2 7.46,-8.5 62.18,-6.4 69.68,-64.8 84.4,-66.9"
         style="fill:#c16256;fill-opacity:1;fill-rule:nonzero;stroke:none"
         id="path234" /><path
         d="m 5803.33,9477.7 c -0.34,-23.3 36.32,-23.3 35.98,0 0.34,23.4 -36.32,23.4 -35.98,0"
         style="fill:#f4d4be;fill-opacity:1;fill-rule:nonzero;stroke:none"
         id="path236" /><path
         d="m 6639.35,9666.4 c 0,0 -133.88,-114.3 -559.85,-74 0,0 12.29,-162.7 -65.76,-250.1 0,0 216.77,-169.1 462.42,-129.7 0,0 170.54,76.3 203.97,229.1 33.43,152.8 -40.78,224.7 -40.78,224.7"
         style="fill:#ffffff;fill-opacity:1;fill-rule:nonzero;stroke:none"
         id="path238" /><path
         d="m 6223.93,9747.3 c 2.38,0 4.7,1.2 6.03,3.4 45.92,75.7 110.91,81.1 111.56,81.2 3.87,0.3 6.81,3.6 6.54,7.5 -0.26,3.9 -3.59,6.8 -7.48,6.6 -2.95,-0.2 -72.76,-5.7 -122.67,-88 -2.02,-3.3 -0.96,-7.6 2.37,-9.7 1.14,-0.7 2.4,-1 3.65,-1"
         style="fill:#c16256;fill-opacity:1;fill-rule:nonzero;stroke:none"
         id="path240" /><path
         d="m 6509.11,9818.4 c 2.36,0 4.65,1.2 5.99,3.3 2.06,3.3 1.05,7.7 -2.26,9.7 -2.04,1.3 -50.75,31.1 -105.12,18.9 -3.8,-0.8 -6.19,-4.6 -5.34,-8.4 0.85,-3.8 4.62,-6.2 8.42,-5.4 48.8,11 94.14,-16.8 94.59,-17.1 1.16,-0.7 2.45,-1 3.72,-1"
         style="fill:#c16256;fill-opacity:1;fill-rule:nonzero;stroke:none"
         id="path242" /><path
         d="m 6237.19,7400.1 c 0,0 -22.71,-130.8 74.65,-236.7 0,0 -8.29,-25.7 -54.3,-24.7 0,0 -81.58,110.4 -72.59,247.9 0,0 20.81,25.7 52.24,13.5"
         style="fill:#1d3f70;fill-opacity:1;fill-rule:nonzero;stroke:none"
         id="path244" /><path
         d="m 7246.91,4227 c 0,0 -944.89,-521.2 -2018.33,-4.4 0,0 7.2,102.6 19.95,271.3 94.57,-16.4 210.38,-64 345.37,-169.8 407.52,-319.2 658.19,-49.2 923.66,0 241.78,45 321.95,-171.6 728.06,20 0.9,-42.3 1.29,-81.5 1.29,-117.1"
         style="fill:#a523a2;fill-opacity:1;fill-rule:nonzero;stroke:none"
         id="path246" /><path
         d="m 26539.1,3102.7 c -97.6,128.9 21.2,718 17,868.6 h -443.3 c -5.1,-150.2 106.3,-740.6 13.2,-868.3 -26.4,-46.1 439.6,-45.6 413.1,-0.3"
         style="fill:#f99370;fill-opacity:1;fill-rule:nonzero;stroke:none"
         id="path248" /><path
         d="m 24368.5,2925.4 h 776 c 46,0 82.1,39.4 77.9,85.2 -7.4,80.3 -24.7,190.5 -19.2,241.5 -3,47 64.6,656.1 69.7,719.2 H 24784 l 78.9,-628.9 c 9.3,-74.2 -35,-144.9 -105.9,-168.3 -95.9,-31.6 -205.1,-45.3 -277.3,-63.9 -69.6,-17.6 -132.2,-41.9 -163.5,-95.4 -23.2,-39.6 6.4,-89.4 52.3,-89.4"
         style="fill:#f99370;fill-opacity:1;fill-rule:nonzero;stroke:none"
         id="path250" /><path
         d="m 25248.3,3007.2 -0.1,-0.8 c -5.7,-46.3 -45,-81 -91.6,-81 h -781.8 c -44.9,0 -77.7,43.5 -64,86.2 41.2,128.7 170.3,208.5 536.5,240.5 0,0 134.6,-40 356,0 0,0 59.2,-128.3 45,-244.9"
         style="fill:#395b96;fill-opacity:1;fill-rule:nonzero;stroke:none"
         id="path252" /><path
         d="m 26503.1,2925.4 h -340.9 c -47.8,0 -86.8,39.5 -84.6,87.2 14.8,321 497.6,323.6 510.1,-0.3 1.9,-47.6 -36.9,-86.9 -84.6,-86.9"
         style="fill:#395b96;fill-opacity:1;fill-rule:nonzero;stroke:none"
         id="path254" /><path
         d="m 24558.7,3036.1 c -6.8,0 -13.4,4.2 -16.1,10.9 -31.5,77.6 -88.2,101.4 -90.6,102.3 -20.9,8.1 -8,40.9 12.8,32.4 3,-1.2 72.7,-29.5 110,-121.6 4.8,-11.1 -4.1,-24.2 -16.1,-24"
         style="fill:#e8c0a6;fill-opacity:1;fill-rule:nonzero;stroke:none"
         id="path256" /><path
         d="m 24693.9,3052.5 c -7.4,0 -14.3,4.8 -16.6,12.2 -27.7,89.4 -106.2,131.4 -106.9,131.9 -20.1,10.1 -3.8,41.5 16,30.8 3.8,-1.9 92,-48.8 124.1,-152.4 3.6,-10.9 -5.2,-22.7 -16.6,-22.5"
         style="fill:#e8c0a6;fill-opacity:1;fill-rule:nonzero;stroke:none"
         id="path258" /><path
         d="m 24847.7,3071.4 c -7.2,0 -13.9,4.5 -16.4,11.6 -32.7,93.9 -107.5,144.2 -108.3,144.7 -18.9,12.1 0.6,41.8 19.2,29 3.5,-2.3 85.5,-57.4 121.9,-162.2 4.1,-11 -4.7,-23.3 -16.4,-23.1"
         style="fill:#e8c0a6;fill-opacity:1;fill-rule:nonzero;stroke:none"
         id="path260" /><path
         d="m 26458,3148.1 c -132.8,75 -250.8,-23.3 -269.9,10.2 -15.6,35.3 158.3,88.1 278.7,22.2 15.2,-8.3 8.2,-33 -8.8,-32.4"
         style="fill:#e8c0a6;fill-opacity:1;fill-rule:nonzero;stroke:none"
         id="path262" /><path
         d="m 24309.4,3007.2 h 938.9 l -0.1,-0.8 c -5.7,-46.3 -45,-81 -91.6,-81 h -790.1 c -41.7,0 -71.4,41.1 -57.6,80.4 0.2,0.5 0.4,1 0.5,1.4"
         style="fill:#4867aa;fill-opacity:1;fill-rule:nonzero;stroke:none"
         id="path264" /><path
         d="m 26510.1,2925.4 h -354.9 c -44.1,0 -79.8,36.4 -78,80.4 0.1,0.5 0.1,1 0.1,1.4 h 510.7 c 0,-0.5 0,-1.1 0,-1.7 1.7,-43.9 -34,-80.1 -77.9,-80.1"
         style="fill:#4867aa;fill-opacity:1;fill-rule:nonzero;stroke:none"
         id="path266" /><path
         d="m 25348.6,10938.8 c 0,0 -44.7,251.8 176.4,333.4 l 139.6,-104.9 -316,-228.5"
         style="fill:#8c4225;fill-opacity:1;fill-rule:nonzero;stroke:none"
         id="path268" /><path
         d="m 24966.1,9057.3 c -620.6,-467.3 -1591.5,-327.4 -1950.7,352.4 l 91,188.9 c 1041,-447.5 1450.8,429.3 2295.4,479.7 l -170.1,-217 c 0,0 -251,-789.1 -265.6,-804"
         style="fill:#ffffff;fill-opacity:1;fill-rule:nonzero;stroke:none"
         id="path270" /><path
         d="m 26609.7,3371.8 c 0,0 -373.1,-90.6 -565.4,6.8 -100,627.4 -377.8,2374.4 -474.5,3571.6 -3.7,-69.8 -206.9,-2885.1 -245.6,-3571.6 -132.7,-44.5 -399.6,-98 -548.9,9.5 -67.1,722.7 -282.5,3102.1 42,5045.4 0,0 889.1,-98.9 1583.6,110.9 191.1,-616.4 241.7,-4432.9 208.8,-5172.6"
         style="fill:#eb5648;fill-opacity:1;fill-rule:nonzero;stroke:none"
         id="path272" /><path
         d="m 25498.3,10094.8 c -6.1,191.7 -30,571.8 125.6,622.8 111.7,38.8 243.9,-56.4 209.6,-182.3 -10.2,6.4 -42.6,-352.6 -20.2,-452.3 294.8,-88.4 -591.8,-379.2 -315,11.8"
         style="fill:#f99370;fill-opacity:1;fill-rule:nonzero;stroke:none"
         id="path274" /><path
         d="m 25836.5,10551.6 c -0.8,-5.4 -1.8,-11 -3,-16.3 -7.3,4.8 -27.8,-193.2 -28,-337 -135,-61.4 -282.1,-37.4 -309.7,-31.7 -7.5,198.4 -19.6,495.6 128.1,551 105.5,45.1 231.1,-51 212.6,-166"
         style="fill:#e57d61;fill-opacity:1;fill-rule:nonzero;stroke:none"
         id="path276" /><path
         d="m 26048.8,10684 c -22.7,-140.7 -70.2,-299.3 -181.4,-392.4 h -0.2 c -162,-122.8 -399.4,-109.7 -564.2,25.6 h -0.1 c -127.2,118.8 -167.5,278.9 -100.5,402.2 43.8,72.6 124.4,136.6 146.2,219.4 188.7,550.9 780.3,242.8 700.2,-254.8"
         style="fill:#f99370;fill-opacity:1;fill-rule:nonzero;stroke:none"
         id="path278" /><path
         d="m 25511.6,10770.8 c -12.9,24.5 25.9,44.1 38,19.3 12.9,-24.4 -25.8,-44.1 -38,-19.3"
         style="fill:#c16256;fill-opacity:1;fill-rule:nonzero;stroke:none"
         id="path280" /><path
         d="m 25332.5,10800.9 c -12.9,24.5 25.8,44.2 38,19.3 12.9,-24.4 -25.8,-44.1 -38,-19.3"
         style="fill:#c16256;fill-opacity:1;fill-rule:nonzero;stroke:none"
         id="path282" /><path
         d="m 26048.7,10684 c -22.7,-140.7 -70.2,-299.4 -181.3,-392.5 h -0.2 c -9.2,-7.6 -15.6,-11.3 -25.6,-17.8 84.6,84 130.3,260.6 130.3,260.6 l -19.9,152.5 c -136.6,138.4 -77.8,294 -77.8,294 -228.4,-64 -305.3,76.9 -305.3,76.9 -72.2,-9.3 -148.1,27.9 -148.1,27.9 259.7,375.8 708.3,-23.9 627.9,-401.6"
         style="fill:#e57d61;fill-opacity:1;fill-rule:nonzero;stroke:none"
         id="path284" /><path
         d="m 25978.7,11050.8 c -97.1,-38.4 -131.2,-263.9 98.2,-418 0,0 111.2,371.5 -98.2,418"
         style="fill:#8c4225;fill-opacity:1;fill-rule:nonzero;stroke:none"
         id="path286" /><path
         d="m 23193.5,9562.9 c 38.8,-190.9 -130.1,-235.3 -130.1,-235.3 -32.2,48.3 -48,82.2 -48,82.1 l 91,188.9 c 0,0 40.1,-13.5 87.1,-35.7"
         style="fill:#d1e0f2;fill-opacity:1;fill-rule:nonzero;stroke:none"
         id="path288" /><path
         d="m 25400.3,10615.6 c -39,0.5 -99.7,26.8 -50.4,61.5 40.2,21.7 69.8,105.2 70.1,106 3.3,9.9 18.9,4.6 15.3,-5.3 -1.3,-3.7 -32,-90.2 -77.7,-114.9 -31.6,-19.4 34.2,-38.1 61.4,-28.5 4.3,1.3 8.8,-1 10.1,-5.2 2.3,-14.5 -18.8,-12.5 -28.8,-13.6"
         style="fill:#c16256;fill-opacity:1;fill-rule:nonzero;stroke:none"
         id="path290" /><path
         d="m 26490,7673.1 c -482.9,-200.8 -1685.5,-217.1 -1802.1,-74.9 -228.1,563 192.8,2064 713.8,2480.1 4.6,1.2 63.4,16.3 96.5,16.3 -2.3,-9.2 -60.7,-251.9 315.1,-11.6 2.2,-2.5 91.7,-4.1 115.5,-20.6 -26.9,-392.5 736.7,-1959.5 561.2,-2389.3"
         style="fill:#e8c0a6;fill-opacity:1;fill-rule:nonzero;stroke:none"
         id="path292" /><path
         d="M 24941.4,9741.4 24708,8905.9 c -364,-200.6 -986.1,-159.4 -1275,66.3 1034.3,-400.7 1118.7,391.1 1494.4,769.2 h 14"
         style="fill:#d1e0f2;fill-opacity:1;fill-rule:nonzero;stroke:none"
         id="path294" /><path
         d="m 25940.9,11267.5 c -76.1,90.1 -214.5,134.2 -246.2,226 0,0 -46.9,-87.9 -41.5,-186.2 -36.8,41.3 -70.5,86.5 -97,134.9 -37.3,-37.6 -57.2,-80.8 -63.3,-125.1 -118.4,25.8 -222.3,-21.7 -222.3,-21.7 60.9,-172 202.9,-209.9 314.3,-210.5 92.4,-88.5 240.1,-128.6 382.8,-41 l 137.5,-177.8 c 195.4,338.7 -164.3,401.4 -164.3,401.4"
         style="fill:#8c4225;fill-opacity:1;fill-rule:nonzero;stroke:none"
         id="path296" /><path
         d="m 25324.2,3378.6 c -3.1,60.3 245.6,3571.6 245.6,3571.6 0,0 -117.5,-62.7 -145.4,-435.6 -24.3,-324.1 -169.2,-2478.4 -206.6,-3035.4 -255.1,-57 -454.1,34.8 -454.1,34.8 7.8,-81.6 11.6,-125.9 11.6,-125.9 122.1,-87.9 322.9,-68.1 464.6,-33.7 34.4,8 61.1,16.5 74.6,21 3.3,1.1 6.6,2.1 9.7,3.2"
         style="fill:#ce3932;fill-opacity:1;fill-rule:nonzero;stroke:none"
         id="path298" /><path
         d="m 26609.7,3371.8 c 0,0 -373.1,-90.6 -565.4,6.8 0,0 -7.9,48.5 -21.8,135.4 0,0 262.9,-71 591.8,2.7 1.4,-84.7 -5.8,-137.9 -4.6,-144.9"
         style="fill:#ce3932;fill-opacity:1;fill-rule:nonzero;stroke:none"
         id="path300" /><path
         d="m 26846.6,5148.9 c -355.4,-100.4 -659.1,-95.1 -811.9,-82.2 -67.7,5.6 -105.8,12.7 -105.8,12.7 0,0 -119.4,2467 -155.7,2988.5 -58.5,538 -101.3,1781.4 155.7,1994.5 l 95.1,-30.5 c 624.1,-774.5 765,-4503.7 822.6,-4883"
         style="fill:#ffffff;fill-opacity:1;fill-rule:nonzero;stroke:none"
         id="path302" /><path
         d="m 24784.1,5059.7 c 0,0 -34.1,-5.1 -84.7,-6.9 -100.7,-3.8 -267.2,5.9 -360.3,96.1 -11.9,199.1 -173.4,4672.3 948.9,4919 l 0.1,0.1 c 36.6,8 74.4,11.6 113.7,10.4 -732.8,-689.6 -690.1,-4439.3 -617.7,-5018.7"
         style="fill:#ffffff;fill-opacity:1;fill-rule:nonzero;stroke:none"
         id="path304" /><path
         d="m 25856.2,10406.6 c 0,0 -390.2,-232.6 -553.3,-89.4 -144,126.4 -167,278.6 -100.5,402.2 0,0 183.6,-64 598.4,-46.5 0,0 -29,-187 55.4,-266.3"
         style="fill:#ffffff;fill-opacity:1;fill-rule:nonzero;stroke:none"
         id="path306" /><path
         d="m 25800.8,10664.9 c -9,-0.3 -11.1,13.7 -2.1,15.8 l 171.8,46.5 c 55.8,-18 -171.6,-57.3 -169.7,-62.3"
         style="fill:#c16256;fill-opacity:1;fill-rule:nonzero;stroke:none"
         id="path308" /><path
         d="m 25856.2,10398.6 c -7.6,-0.3 -11.1,10.6 -4.4,14.8 4.8,-1.6 167.6,122.6 168.8,102.4 12.2,-12.4 -158.7,-112.7 -164.4,-117.2"
         style="fill:#c16256;fill-opacity:1;fill-rule:nonzero;stroke:none"
         id="path310" /><path
         d="m 26138.1,10612.9 c -34.6,-160 -229.9,-118.7 -196.8,41.6 34.6,160 229.9,118.7 196.8,-41.6"
         style="fill:#f99370;fill-opacity:1;fill-rule:nonzero;stroke:none"
         id="path312" /><path
         d="m 26087.4,10579.9 c -5.3,-0.1 -9.4,5.3 -7.7,10.4 30.4,85.1 -7.3,120.8 -64.7,97.2 -56.4,19.3 143.4,71.3 80.1,-101.9 -1.1,-3.5 -4.3,-5.7 -7.7,-5.7"
         style="fill:#c16256;fill-opacity:1;fill-rule:nonzero;stroke:none"
         id="path314" /><path
         d="m 26012.1,10591.1 c -24.4,3.5 21.9,78.3 83.8,83.4 10.5,0.9 11.5,-15.6 1.1,-16.1 -62.3,-6.4 -70.1,-65.2 -84.9,-67.3"
         style="fill:#c16256;fill-opacity:1;fill-rule:nonzero;stroke:none"
         id="path316" /><path
         d="m 25944.5,9590.7 c -40.3,-314.1 255.2,-820.8 -207.2,-962.8 l 348.3,-83.5 97.1,376.6 -238.2,669.7"
         style="fill:#d1e0f2;fill-opacity:1;fill-rule:nonzero;stroke:none"
         id="path318" /><path
         d="m 24784.1,5059.7 c 0,0 -34.1,-5.1 -84.7,-6.9 -68.6,651.1 -49.4,1486.6 -33.9,1897.4 16.1,424.1 67.6,1300.3 210,2072.4 142.6,772 412.5,1045.3 412.5,1045.3 l 0.1,0.1 c 36.6,8 74.4,11.6 113.7,10.4 -732.8,-689.6 -690.1,-4439.3 -617.7,-5018.7"
         style="fill:#d1e0f2;fill-opacity:1;fill-rule:nonzero;stroke:none"
         id="path320" /><path
         d="m 26554.2,8191.4 6.1,-59.4 c -274.9,-135.8 -787.1,-64.1 -787.1,-64.1 -5.2,79.3 -10.3,155.5 -15.2,228.7 l 724.2,212.6 c 23.2,-127 54,-186 72,-317.8"
         style="fill:#d1e0f2;fill-opacity:1;fill-rule:nonzero;stroke:none"
         id="path322" /><path
         d="m 26034.7,5066.7 c -67.7,5.6 -105.8,12.7 -105.8,12.7 0,0 -119.4,2467 -155.7,2988.5 -58.5,538 -101.3,1781.4 155.6,1994.5 l 95.2,-30.5 c -86.5,-51 -206.9,-412.5 -203.6,-935.9 4.4,-701.8 75.8,-1553.5 111.4,-2145.8 30.5,-507.9 87.3,-1586.5 102.9,-1883.5"
         style="fill:#d1e0f2;fill-opacity:1;fill-rule:nonzero;stroke:none"
         id="path324" /><path
         d="m 24909.5,8727.1 c -27.5,-33.9 86.7,-81.1 106.7,-116.4 -75.8,-13.5 -156.2,-5.1 -156.5,-5.5 -91.6,26.9 -181.5,58.8 -270,94.7 -28,12.2 -49.2,-31 -21.8,-45.5 81.3,-45.4 164.9,-87.4 250.3,-125 -0.2,-0.8 -0.1,-0.6 -0.3,-1.4 -94.5,7.2 -188.7,19.3 -281.4,38.7 -11.4,2.4 -23.6,1.1 -33.8,-4.6 -88.8,-49.1 284.3,-108 315.2,-114.9 0,-0.4 0,-0.3 0,-0.7 -89.3,-8.2 -179.7,-6.2 -268.7,5 -13.2,1.6 -26.7,-1.4 -37,-9.7 -71.3,-57.3 299.9,-84.7 333.4,-80.9 0.2,-0.3 0.3,-0.7 0.5,-1 -68.7,-16.6 -139.3,-24.9 -209.8,-29.5 -11.5,-0.8 -22.6,-5.1 -30.9,-13 -68.4,-64.8 253.5,-43.2 284.6,-37.4 37,-2.1 149.7,-43.7 319,15.3 52.8,18.4 76.3,262.8 22.8,275.1 -40.1,9.2 -111.2,50.1 -133.6,61.9 -34.1,27.3 -151,132.2 -188.7,94.8"
         style="fill:#f99370;fill-opacity:1;fill-rule:nonzero;stroke:none"
         id="path326" /><path
         d="m 25325.3,8254.6 c -38.1,12.6 -76.8,26.2 -116.3,40.7 -6.5,34.1 -46.3,194.6 22.8,275.1 1652.4,72.2 393,626.6 792.2,1461.5 1185,-78.1 1777.7,-2472.4 -698.7,-1777.3"
         style="fill:#ffffff;fill-opacity:1;fill-rule:nonzero;stroke:none"
         id="path328" /><path
         d="m 25325.3,8254.6 c -38,12.6 -76.8,26.2 -116.3,40.7 -6.5,34.1 -46.3,194.6 22.8,275.1 0,0 45.3,4.8 93.5,4.8 0,0 -81.5,-143.5 0,-320.6"
         style="fill:#d1e0f2;fill-opacity:1;fill-rule:nonzero;stroke:none"
         id="path330" /><path
         d="m 25613.3,10804 c -2.5,0 -4.9,1.4 -6,3.9 -28.4,62.1 -95.1,60.6 -95.5,60.5 -3.5,0.1 -6.7,2.7 -6.8,6.3 -0.1,3.6 2.7,6.7 6.3,6.8 0.8,0.1 76,1.7 107.9,-68.2 1.5,-3.3 0.1,-7.2 -3.2,-8.7 -0.9,-0.4 -1.8,-0.6 -2.7,-0.6"
         style="fill:#c16256;fill-opacity:1;fill-rule:nonzero;stroke:none"
         id="path332" /><path
         d="m 25344.9,10879.3 c -2,0 -4,0.9 -5.2,2.6 -2.2,2.9 -1.6,6.9 1.2,9.1 1.5,1.2 37.7,27.8 97.1,6.8 3.4,-1.2 5.2,-4.9 4,-8.3 -1.2,-3.4 -5,-5.2 -8.4,-4 -52.4,18.5 -83.5,-4 -84.8,-4.9 -1.2,-0.9 -2.5,-1.3 -3.9,-1.3"
         style="fill:#c16256;fill-opacity:1;fill-rule:nonzero;stroke:none"
         id="path334" /><path
         d="m 25928.7,10062.4 c -80.5,-75.5 -570.8,-402.5 -527,15.9 4.6,1.2 63.4,16.3 96.5,16.3 -2.3,-9.2 -40.3,-236.3 315.1,-11.6 1.5,1 92.1,-5.3 115.4,-20.6"
         style="fill:#d1a68f;fill-opacity:1;fill-rule:nonzero;stroke:none"
         id="path336" /><path
         d="m 23763.7,10090.5 c -0.2,-120.1 -24.8,-6972.8 -24.1,-6808.4 -2.8,-471.1 -907.8,-468.9 -907.1,3.2 1,86.8 22.6,6523.4 24.1,6808.4 l 63.2,-0.3 843.9,-2.9"
         style="fill:#fcb4b4;fill-opacity:1;fill-rule:nonzero;stroke:none"
         id="path338" /><path
         d="m 23740.9,3628.3 c 0.5,-57 -1.7,-284.9 -1.3,-346.2 11.4,-338.5 -560.7,-473.3 -790.5,-239.8 v 0 c -167.7,118.5 -106.2,418.6 -115.4,589.2 l 907.2,-3.2"
         style="fill:#eb5648;fill-opacity:1;fill-rule:nonzero;stroke:none"
         id="path340" /><path
         d="m 23167.2,3833.7 c -62.6,25 -40.1,6266.7 22,6291.6 62.5,-25.3 40,-6266.6 -22,-6291.6"
         style="fill:#f49f9f;fill-opacity:1;fill-rule:nonzero;stroke:none"
         id="path342" /><path
         d="m 23763.7,10090.5 c -152.6,0.5 -743.8,2.6 -907.1,3.2 110.6,286.4 349.1,904.3 457.7,1185.8 106.1,-280.6 341.6,-903.6 449.4,-1189"
         style="fill:#ffe7d7;fill-opacity:1;fill-rule:nonzero;stroke:none"
         id="path344" /><path
         d="m 23496.6,10797.4 c -114.8,-41 -255.6,-39.9 -367.8,1.3 l 185.5,480.8 182.3,-482.1"
         style="fill:#eb5648;fill-opacity:1;fill-rule:nonzero;stroke:none"
         id="path346" /><path
         d="M 22919.8,10093.4 V 3866.6 h -85.3 l 22.1,6227.1 63.2,-0.3"
         style="fill:#f9c0c0;fill-opacity:1;fill-rule:nonzero;stroke:none"
         id="path348" /><path
         d="m 23740.5,3541.1 -0.9,-259 c 11.4,-338.5 -560.7,-473.3 -790.5,-239.8 v 0 c 0,0 590.4,-12 590.4,499.6 l 201,-0.8"
         style="fill:#ce3932;fill-opacity:1;fill-rule:nonzero;stroke:none"
         id="path350" /><path
         d="m 23831.5,3621.6 c -0.2,-44.7 -36.5,-80.7 -81,-80.5 l -214,0.8 -713.1,2.5 c -104.9,-1.2 -103.8,163.7 0.5,161.5 l 927.1,-3.3 c 44.7,-0.1 80.7,-36.4 80.5,-81"
         style="fill:#93abe5;fill-opacity:1;fill-rule:nonzero;stroke:none"
         id="path352" /><path
         d="m 23832.1,3783 c -0.1,-44.5 -36.5,-80.5 -81.1,-80.4 l -214.1,0.7 -713,2.6 c -104.7,-1.1 -103.9,163.5 0.6,161.5 l 927.2,-3.3 c 44.5,-0.2 80.5,-36.4 80.4,-81.1"
         style="fill:#93abe5;fill-opacity:1;fill-rule:nonzero;stroke:none"
         id="path354" /><path
         d="m 23606.5,3621.6 c -0.2,-40.9 -30.7,-74.5 -70,-79.7 l -713.1,2.5 c -44.6,0.2 -80.6,36.4 -80.5,81 0.2,40.9 30.6,74.5 69.9,79.7 l 713.2,-2.5 c 44.6,-0.1 80.6,-36.4 80.5,-81"
         style="fill:#d2e6ff;fill-opacity:1;fill-rule:nonzero;stroke:none"
         id="path356" /><path
         d="m 23607,3783 c -0.1,-40.8 -30.6,-74.4 -70.1,-79.7 l -713,2.6 c -44.5,0.1 -80.5,36.4 -80.4,81 0.1,40.8 30.6,74.5 70.1,79.7 l 713,-2.5 c 44.5,-0.2 80.5,-36.4 80.4,-81.1"
         style="fill:#d2e6ff;fill-opacity:1;fill-rule:nonzero;stroke:none"
         id="path358" /><path
         d="m 23763.7,10090.5 -22,-6224.1 -207.4,-2.7 v 6226.8 h 229.4"
         style="fill:#f49f9f;fill-opacity:1;fill-rule:nonzero;stroke:none"
         id="path360" /><path
         d="m 23763.7,10090.5 h -229.4 c -0.1,0.1 -219.9,1188.7 -220,1189 106.1,-280.6 341.6,-903.6 449.4,-1189"
         style="fill:#edd5c5;fill-opacity:1;fill-rule:nonzero;stroke:none"
         id="path362" /><path
         d="m 23496.6,10797.4 c -28.3,-9.8 -58,-17.5 -88.9,-22.7 l -93.4,504.8 182.3,-482.1"
         style="fill:#ce3932;fill-opacity:1;fill-rule:nonzero;stroke:none"
         id="path364" /><path
         d="m 22856,9309.9 c -135.4,24.4 -88.8,178.4 21.9,87.4 l -2.3,0.4 c 71.3,-11.3 46.4,-99.9 -19.6,-87.8"
         style="fill:#f99370;fill-opacity:1;fill-rule:nonzero;stroke:none"
         id="path366" /><path
         d="m 22844.9,9397.2 c -155.9,61.8 -21.7,191.4 33.2,87.5 -1,2 5.4,-4.3 7.7,-4.6 0.4,-0.3 2.9,-1.3 0.9,-0.5 68.3,-25.5 16.9,-106 -41.8,-82.4"
         style="fill:#f99370;fill-opacity:1;fill-rule:nonzero;stroke:none"
         id="path368" /><path
         d="m 22830.4,9488.3 -40.9,29.5 c -56,43.7 26.2,104.6 70.8,67.4 l 40.9,-29.4 c 55.9,-43.8 -26.2,-104.6 -70.8,-67.5"
         style="fill:#f99370;fill-opacity:1;fill-rule:nonzero;stroke:none"
         id="path370" /><path
         d="m 22830.4,9569.4 -40.9,29.5 c -56,43.7 26.2,104.5 70.8,67.4 l 40.9,-29.5 c 55.9,-43.7 -26.2,-104.5 -70.8,-67.4"
         style="fill:#f99370;fill-opacity:1;fill-rule:nonzero;stroke:none"
         id="path372" /><path
         d="m 14940.2,15260 h -442.1 v 442.1 h -297.6 V 15260 h -442 v -297.6 h 442 v -442.1 h 297.6 v 442.1 h 442.1 v 297.6"
         style="fill:#ffffff;fill-opacity:1;fill-rule:nonzero;stroke:none"
         id="path374" /><path
         d="m 10423.7,16128 h -442.02 v 442.1 H 9684.1 V 16128 h -442.07 v -297.6 h 442.07 v -442.1 h 297.58 v 442.1 h 442.02 v 297.6"
         style="fill:#8a9edd;fill-opacity:1;fill-rule:nonzero;stroke:none"
         id="path376" /><path
         d="M 18888.1,17252.9 H 18446 v 442 h -297.5 v -442 h -442.1 v -297.6 h 442.1 v -442.1 h 297.5 v 442.1 h 442.1 v 297.6"
         style="fill:#8a9edd;fill-opacity:1;fill-rule:nonzero;stroke:none"
         id="path378" /></g></g></svg>
